MOT_standard
version=1
nRows=35
nColumns=19
endheader
time	ground_force_vx	ground_force_vy	ground_force_vz	ground_force_px	ground_force_py	ground_force_pz	1_ground_force_vx	1_ground_force_vy	1_ground_force_vz	1_ground_force_px	1_ground_force_py	1_ground_force_pz	ground_torque_x	ground_torque_y	ground_torque_z	1_ground_torque_x	1_ground_torque_y	1_ground_torque_z	
11.17	-102.815068	676.363464	131.973046	0.658361	0.0	-0.428193	62.40134	36.523941	97.41523	0.0	0.0	0.0	-19.619298	-6.884753	-155.539327	-2.997292	-5.897829	3.392653	
11.18	-72.131452	680.256104	120.365812	0.667383	0.0	-0.45506	47.231236	14.901647	59.616711	0.0	0.0	0.0	-1.455601	-16.878004	-150.297125	-11.86308	-14.375962	-3.123611	
11.19	-85.53996	684.461853	122.801704	0.670034	0.0	-0.455377	49.395313	21.617569	90.009567	0.0	0.0	0.0	-1.247499	-7.594588	-149.411844	-9.103484	0.872477	1.557338	
11.2	-141.114976	653.567139	176.835323	0.64873	0.0	-0.453796	86.812492	26.491587	101.65493	0.239231	0.0	-0.947683	-2.224716	-9.751318	-156.591422	-9.34236	-28.943113	-0.3545	
11.21	-117.580668	644.705444	153.241083	0.649044	0.0	-0.462666	60.249088	36.823513	90.853683	0.0	0.0	0.0	3.523846	-14.595793	-154.266016	-22.352336	-5.936571	-1.352581	
11.22	-73.149586	668.069702	130.982703	0.663748	0.0	-0.451994	56.207787	23.255291	95.664711	0.0	0.0	0.0	-3.477962	-9.562875	-150.033218	-9.128002	-4.376282	-0.797969	
11.23	-84.895267	654.008789	142.496055	0.65853	0.0	-0.468561	50.621643	14.980287	49.188019	0.0	0.0	0.0	7.430246	-9.931442	-150.287751	1.548073	-21.515697	1.004067	
11.24	-68.793929	656.077576	102.251707	0.664766	0.0	-0.468974	46.000412	25.064266	89.996147	0.0	0.0	0.0	7.7246	-1.568783	-146.672173	-0.392106	2.78375	0.224594	
11.25	-117.115891	633.621094	176.95434	0.647669	0.0	-0.470874	73.761749	27.406124	91.614136	0.0	0.0	0.0	8.664371	-9.484004	-152.48486	-13.483983	-21.140816	-0.44492	
11.26	-85.733096	643.683655	153.109153	0.657205	0.0	-0.478231	48.767227	27.071774	85.375435	0.0	0.0	0.0	13.537234	-5.558987	-148.767876	-6.851798	-6.615778	1.810863	
11.27	-131.533064	623.924622	203.309261	0.641686	0.0	-0.485938	85.43602	35.745277	104.997177	0.0	0.0	0.0	17.930636	-16.742365	-153.884158	-9.050314	-18.094215	-0.16396	
11.28	-92.384831	650.874207	139.195198	0.665332	0.0	-0.498107	55.680004	32.5639	86.304291	0.0	0.0	0.0	26.62501	-0.623994	-145.140127	-4.51054	-8.243974	1.139167	
11.29	-82.698675	649.600098	118.119331	0.663428	0.0	-0.487279	66.848824	12.387818	71.691818	0.0	0.0	0.0	19.539246	-1.44097	-146.093033	-0.958009	-8.188632	-1.836749	
11.3	-131.859663	604.158325	205.118144	0.630122	0.0	-0.489678	68.698952	38.902153	104.331345	0.0	0.0	0.0	19.621772	-12.652547	-155.995361	-13.338313	-22.630604	0.451185	
11.31	-73.215038	645.748291	141.039969	0.65943	0.0	-0.491532	66.865303	36.831417	97.246422	0.0	0.0	0.0	22.170152	1.946953	-147.808377	-2.134737	0.651915	-0.437738	
11.32	-151.266233	612.613098	220.97572	0.636531	0.0	-0.497438	83.816071	37.873512	98.984344	0.0	0.0	0.0	24.650214	-10.861951	-154.252283	-4.562175	-27.806293	1.725905	
11.33	-92.741658	638.638184	135.982338	0.659184	0.0	-0.49613	61.353359	17.411533	93.279633	0.26667	0.0	-1.073357	24.862287	4.516612	-146.338158	10.530846	-2.90938	1.672538	
11.34	-77.639407	637.040649	149.322745	0.661061	0.0	-0.495963	49.958229	21.677105	71.391006	0.0	0.0	0.0	24.693498	-7.269308	-144.776377	6.70454	-14.549171	1.282511	
11.35	-118.118484	641.41394	189.855097	0.650415	0.0	-0.500322	74.222786	40.704212	116.031586	0.0	0.0	0.0	27.658935	-2.79722	-152.598893	6.403818	-7.194208	4.004074	
11.36	-105.255526	662.586731	152.865701	0.667682	0.0	-0.523879	65.068787	29.714708	73.306152	0.0	0.0	0.0	44.180855	0.888716	-146.195363	-5.040406	-7.837115	-1.550929	
11.37	-135.797135	649.85083	182.900905	0.6561	0.0	-0.531873	65.275833	27.569767	126.047562	0.297187	0.0	-0.752363	48.526527	-1.699495	-150.91127	-3.660343	-7.5063	2.629114	
11.38	-85.464847	676.441101	148.577171	0.673466	0.0	-0.531762	60.4137	11.894361	60.294838	0.0	0.0	0.0	50.436851	1.944186	-145.33952	-2.033961	-15.149377	-1.746607	
11.39	-123.049825	679.166382	215.403163	0.661143	0.0	-0.526375	57.709297	31.584778	81.888977	0.0	0.0	0.0	46.98139	-10.094122	-154.294129	-11.839864	-13.204786	0.364488	
11.4	-108.940409	718.581604	163.503686	0.675912	0.0	-0.546091	66.83213	38.943027	119.563828	0.231736	0.0	-1.034646	63.875249	9.625785	-152.635958	-8.592374	-2.554271	2.579823	
11.41	-173.795359	688.003418	257.90544	0.656014	0.0	-0.561461	102.09597	33.687187	119.6754	0.0	0.0	0.0	71.73226	-8.899111	-159.830568	-15.365818	-13.028543	-0.15707	
11.42	-87.866954	725.871277	151.583366	0.681293	0.0	-0.560526	40.079254	10.770979	70.698563	0.0	0.0	0.0	75.001386	11.717476	-150.27885	-3.603155	-14.319718	-0.218227	
11.43	-109.674208	739.462891	203.911996	0.677591	0.0	-0.563216	68.436607	25.62838	86.475533	0.0	0.0	0.0	78.39519	-2.49598	-155.829819	-7.66095	-9.392788	-0.936293	
11.44	-122.269758	740.905457	208.58076	0.672251	0.0	-0.573947	62.28701	42.752594	102.078117	0.0	0.0	0.0	86.498143	5.540847	-160.090366	-8.843188	-7.332017	1.832518	
11.45	-131.907407	741.539551	221.520793	0.674876	0.0	-0.590774	68.037872	28.422941	92.675598	0.0	0.0	0.0	99.050401	6.425109	-158.280711	-10.408683	-16.470584	-2.906772	
11.46	-95.217125	752.181091	191.686424	0.68175	0.0	-0.598112	48.861763	11.746097	83.36985	0.0	0.0	0.0	105.991128	6.196219	-155.381884	-2.396027	-6.433221	0.253781	
11.47	-160.33265	738.699219	275.229872	0.665702	0.0	-0.607265	88.614357	29.068851	111.581886	0.0	0.0	0.0	110.852799	12.884587	-164.4514	-17.328982	-22.976164	1.768308	
11.48	-118.38695	756.018311	254.408228	0.676789	0.0	-0.613672	64.585541	40.620773	105.536606	0.0	0.0	0.0	118.295862	-7.101996	-159.924791	-21.075789	1.755335	0.984495	
11.49	-132.057629	737.329895	222.902736	0.673896	0.0	-0.626873	62.809795	36.156559	89.782898	0.0	0.0	0.0	125.104925	19.795914	-158.105198	-19.629299	-26.663539	-2.866147	
11.5	-101.454997	739.773193	244.877145	0.680881	0.0	-0.63084	56.032604	24.54195	99.289917	0.320149	0.0	-0.74615	128.454394	-4.700889	-153.461542	-10.867492	-2.807965	-2.87965	
11.51	-80.163283	746.991272	199.951117	0.687228	0.0	-0.637442	62.901817	12.374886	69.577888	0.0	0.0	0.0	134.639253	22.04484	-150.217839	3.569513	-17.231566	3.235192	
